<svg width="1600" height="1000" viewBox="0 0 1600 1000" fill="none" xmlns="http://www.w3.org/2000/svg" role="img" aria-labelledby="title desc">
  <title id="title">Hero speaker placeholder</title>
  <desc id="desc">Neobrutalist cyberpunk placeholder showing a keynote speaker on stage with fintech dashboard panels.</desc>
  <rect width="1600" height="1000" fill="#08080C"/>
  <defs>
    <linearGradient id="g" x1="0" y1="0" x2="1600" y2="1000" gradientUnits="userSpaceOnUse">
      <stop stop-color="#C4FF00"/>
      <stop offset=".45" stop-color="#00D4FF"/>
      <stop offset="1" stop-color="#FF2BD6"/>
    </linearGradient>
    <pattern id="grid" width="60" height="60" patternUnits="userSpaceOnUse">
      <path d="M 60 0 L 0 0 0 60" fill="none" stroke="#FFFFFF" stroke-opacity=".12" stroke-width="2"/>
    </pattern>
  </defs>
  <rect x="40" y="40" width="1520" height="920" fill="url(#grid)" stroke="#F7F3E8" stroke-width="8"/>
  <rect x="92" y="92" width="520" height="168" fill="#C4FF00" stroke="#08080C" stroke-width="8"/>
  <text x="126" y="158" fill="#08080C" font-family="Arial Black, Impact, sans-serif" font-size="52">SPEAKER</text>
  <text x="126" y="218" fill="#08080C" font-family="Arial, sans-serif" font-size="30">PHOTO / STAGE HERO</text>
  <rect x="1010" y="116" width="420" height="130" fill="#00D4FF" stroke="#F7F3E8" stroke-width="6"/>
  <text x="1040" y="170" fill="#08080C" font-family="Arial Black, Impact, sans-serif" font-size="34">FINTECH</text>
  <text x="1040" y="212" fill="#08080C" font-family="Arial, sans-serif" font-size="24">COMMAND CENTER</text>
  <circle cx="790" cy="430" r="130" fill="#FF2BD6" stroke="#F7F3E8" stroke-width="8"/>
  <rect x="695" y="555" width="190" height="270" fill="#F7F3E8" stroke="#08080C" stroke-width="8"/>
  <rect x="650" y="635" width="280" height="62" fill="#C4FF00" stroke="#08080C" stroke-width="7"/>
  <path d="M520 800C650 710 920 710 1080 810" stroke="#00D4FF" stroke-width="16" stroke-linecap="round"/>
  <rect x="120" y="330" width="360" height="420" fill="#12121A" stroke="#F7F3E8" stroke-width="6"/>
  <text x="150" y="390" fill="#C4FF00" font-family="Arial Black, Impact, sans-serif" font-size="34">AI + MONEY</text>
  <path d="M150 455H420M150 525H370M150 595H430M150 665H330" stroke="#F7F3E8" stroke-width="12"/>
  <rect x="1120" y="360" width="340" height="390" fill="#12121A" stroke="#F7F3E8" stroke-width="6"/>
  <path d="M1160 680L1215 600L1275 635L1345 510L1410 550" stroke="#C4FF00" stroke-width="14" stroke-linecap="round" stroke-linejoin="round"/>
  <text x="1160" y="430" fill="#FF2BD6" font-family="Arial Black, Impact, sans-serif" font-size="32">OWN THE</text>
  <text x="1160" y="472" fill="#FF2BD6" font-family="Arial Black, Impact, sans-serif" font-size="32">FUTURE</text>
  <text x="113" y="900" fill="#F7F3E8" font-family="Arial Black, Impact, sans-serif" font-size="56">REPLACE WITH 1600×1000 STAGE PHOTO</text>
</svg>